<?xml version="1.0" standalone="no"?>
<!DOCTYPE svg PUBLIC "-//W3C//DTD SVG 20010904//EN"
 "http://www.w3.org/TR/2001/REC-SVG-20010904/DTD/svg10.dtd">
<svg version="1.0" xmlns="http://www.w3.org/2000/svg"
 width="2.875em" height="2.5em" viewBox="0 0 126.000000 126.000000"
 preserveAspectRatio="xMidYMid meet">
<metadata>
Created by potrace 1.10, written by Peter Selinger 2001-2011
</metadata>
<g transform="translate(0.000000,126.000000) scale(0.100000,-0.100000)"
fill="#69509f" stroke="none">
<path d="M590 1130 c-139 -6 -166 -13 -228 -59 -38 -28 -90 -99 -111 -151 -18
-46 -26 -147 -13 -174 6 -11 20 -41 31 -66 26 -54 43 -75 96 -115 74 -56 105
-65 229 -65 132 0 150 -9 144 -77 -3 -34 -7 -39 -38 -48 -21 -6 -111 -8 -230
-5 -107 3 -198 4 -203 2 -4 -2 -7 -62 -7 -133 l0 -130 43 3 42 3 0 85 0 85
191 3 c155 2 194 5 204 17 7 8 18 15 25 15 16 0 51 54 60 93 5 20 0 42 -20 82
-37 76 -66 88 -215 90 -126 1 -142 6 -207 72 -51 51 -67 90 -67 163 0 57 4 72
30 110 41 62 102 106 159 114 26 4 95 6 153 5 l107 -3 3 47 c3 44 1 47 -20 45
-13 -1 -84 -4 -158 -8z"/>
<path d="M859 1128 c0 -7 -2 -46 -2 -87 l-2 -75 -155 3 c-122 2 -162 -1 -190
-13 -73 -32 -100 -71 -100 -143 0 -47 4 -56 38 -93 l39 -40 99 0 c118 -1 186
-21 250 -74 105 -88 110 -234 12 -335 -56 -57 -86 -65 -258 -71 l-155 -5 0
-40 0 -40 150 1 c171 1 205 9 282 67 168 126 170 376 5 503 -63 48 -126 64
-249 64 l-103 0 -19 31 c-20 33 -18 52 8 82 14 17 32 18 216 16 111 -1 205 0
211 3 5 3 9 62 9 130 l0 123 -42 3 c-30 2 -43 -1 -44 -10z"/>
</g>
</svg>
